<svg xmlns="http://www.w3.org/2000/svg" viewBox="0 0 262.87 37.98"><defs><style>.cls-1{fill:#f7c096;}.cls-1,.cls-2,.cls-3,.cls-4,.cls-5,.cls-6,.cls-7,.cls-8{fill-rule:evenodd;}.cls-2{fill:#f79c93;}.cls-3{fill:#f27e86;}.cls-4{fill:#ed558f;}.cls-5{fill:#ce4f9f;}.cls-6{fill:#9551a0;}.cls-7{fill:#595698;}.cls-8{fill:#3a477d;}.cls-9{fill:#21313c;}</style></defs><g id="Layer_2" data-name="Layer 2"><g id="Layer_4" data-name="Layer 4"><g id="logo-ratio-_-clearance" data-name="logo-ratio-&amp;-clearance"><g id="realmLogo"><g id="Page-1-Copy-15"><g id="Logo"><path id="Melon" class="cls-1" d="M27.13,1.83A19,19,0,0,0,5.88,5.25C2.26,8.71,33.55,4.88,27.13,1.83Z"/><path id="Peach" class="cls-2" d="M33.83,7.13s-1.55,2.13-6.27,2.73C18,11.06,1.67,11.19,1.7,11.13A19.16,19.16,0,0,1,5.88,5.25a13.53,13.53,0,0,0,6.41.41C15.79,5,18.9,3,22.35,2.18a15.38,15.38,0,0,1,4.78-.35A19.08,19.08,0,0,1,33.83,7.13Z"/><path id="Sexy-Salmon" class="cls-3" d="M37.75,16c0,.07-21.49,2.09-32,1.5a7.76,7.76,0,0,1-5.4-2.36,19,19,0,0,1,1.31-4,20.83,20.83,0,0,1,10-2.57c4.32,0,8.57,1.49,12.9,1.38a18.51,18.51,0,0,0,9.19-2.81A18.93,18.93,0,0,1,37.75,16Z"/><path id="Flamingo" class="cls-4" d="M38,19v.32a59.29,59.29,0,0,1-13.66,1.41A237.44,237.44,0,0,1,0,18.83a18.6,18.6,0,0,1,.39-3.68,14,14,0,0,0,8.72,2A24.71,24.71,0,0,0,16,15.1a41.39,41.39,0,0,1,6.77-2.5,17.68,17.68,0,0,1,10.42.78A18.09,18.09,0,0,1,37.75,16,19.54,19.54,0,0,1,38,19Z"/><path id="Mulberry" class="cls-5" d="M16.44,25.16C10.75,26.21,1,25,.94,24.92A19,19,0,0,1,0,19v-.16a16,16,0,0,1,2.86-1.78,15,15,0,0,1,7.91-1.41A26.51,26.51,0,0,1,18.45,18a63,63,0,0,0,6.29,2.53C25,20.56,22.72,24,16.44,25.16Z"/><path id="Grape-Jelly" class="cls-6" d="M37.3,24.06c-.4.68-4.18,2.94-9.31,3.33-6.8.51-14.82-1.54-12.16-2.59C20,23.16,23.66,20.2,28,19a16.63,16.63,0,0,1,10,.34A19,19,0,0,1,37.3,24.06Z"/><path id="Indigo" class="cls-7" d="M35.46,28.46C32.18,34.15,8.4,35.58,4.92,31.75a19,19,0,0,1-4-6.83A15.35,15.35,0,0,1,10.57,23c4.25.58,8.06,3,12.26,3.88a18.51,18.51,0,0,0,10.24-.66,19.36,19.36,0,0,0,4.23-2.15A18.78,18.78,0,0,1,35.46,28.46Z"/><path id="East-Bay" class="cls-8" d="M35.49,28.41A19,19,0,0,1,4.92,31.75c.58.22,1.22.41,1.81.57a18.62,18.62,0,0,0,10.15-.08C19,31.62,21,30.63,23,29.89a28.06,28.06,0,0,1,12.46-1.48Z"/></g></g></g></g><path class="cls-9" d="M182.58,28.8a2.5,2.5,0,1,1,2.5-2.54,2.47,2.47,0,0,1-2.5,2.54m0-4.78a2.28,2.28,0,1,0,2.27,2.29A2.27,2.27,0,0,0,182.58,24m.62,3.86-.65-1.39H182v1.39h-.38V24.72h.93c.7,0,1,.31,1,.88a.77.77,0,0,1-.63.85l.67,1.43ZM182,26.16h.55c.44,0,.61-.16.61-.56s-.16-.54-.66-.54H182Z"/><path class="cls-9" d="M145.3,26.52a5.74,5.74,0,0,0,3.22.77,6.28,6.28,0,0,0,4.55-1.63c1.52-1.37,2.55-3.48,2.55-6.83s-1.23-5.83-3.74-7.36a10,10,0,0,0-5.36-1.25,4.46,4.46,0,0,0-1.58.19.84.84,0,0,0-.29.45c-.06.57-.06,4.94-.06,7.53s0,6.35.06,6.79a2,2,0,0,0,.65,1.34M138.86,8.79c.54,0,2.63.09,3.6.09,1.8,0,3.06-.09,6.45-.09A10.41,10.41,0,0,1,155.84,11a9.27,9.27,0,0,1,3.17,7.3,9.49,9.49,0,0,1-3.94,8.2c-2,1.47-4.52,2.3-8.16,2.3-1.94,0-5.26-.07-8-.1h0c-.13-.25.23-1.25.46-1.27a4.33,4.33,0,0,0,1.3-.26c.59-.24.73-.54.79-1.59.1-2,.07-4.34.07-7,0-1.91,0-5.65,0-6.83-.09-1-.51-1.24-1.35-1.43a17.72,17.72,0,0,0-1.81-.29,3.09,3.09,0,0,1,.6-1.24"/><path class="cls-9" d="M167,10.41c-.13,0-.29.35-.29.51,0,1.14-.07,4.14-.07,6.22a.22.22,0,0,0,.16.16c.42,0,1.46.06,2.33.06a5.58,5.58,0,0,0,2.32-.35A3,3,0,0,0,173,14.17c0-2.78-1.94-3.83-4.81-3.83a7.86,7.86,0,0,0-1.16.07m7.32,12.76c0-2.81-2.06-4.41-5.84-4.41a13.39,13.39,0,0,0-1.64,0c-.1,0-.2.09-.2.15,0,2,0,5.24.07,6.51a2.13,2.13,0,0,0,.93,1.53,6.46,6.46,0,0,0,2.49.35,3.87,3.87,0,0,0,4.19-4.17M161.18,8.84c.29,0,1.15.1,3.34.1s3.75-.06,5.75-.06c2.48,0,5.9.89,5.9,4.59a4.48,4.48,0,0,1-3,4c-.1,0-.1.09,0,.12,2.39.61,4.49,2.08,4.49,4.88S176,26.93,173.49,28a13.31,13.31,0,0,1-5.29.9c-1.45,0-5.34-.16-7.5-.13-.23-.1.21-1.12.4-1.28a5.9,5.9,0,0,0,1.46-.23c.78-.19.87-.44,1-1.58s.07-4.53.07-7c0-3.45,0-5.78,0-6.93,0-.89-.36-1.18-1-1.34s-1.29-.19-1.93-.28c-.17-.16.33-1.12.49-1.25"/><path class="cls-9" d="M45.48,28.8a1.4,1.4,0,0,1-.1-.64.87.87,0,0,1,.1-.43,12,12,0,0,0,1.24-.25c.57-.15.79-.45.82-1.18.09-1.72.1-4.95.07-7.22V19a.93.93,0,0,0-.3-.81,7,7,0,0,0-1.71-.75c-.27-.08-.42-.22-.42-.39s.18-.36.53-.43a20.2,20.2,0,0,0,4.35-1.12.61.61,0,0,1,.13.46l0,.31c0,.32,0,.69,0,1a.23.23,0,0,0,.23.21.26.26,0,0,0,.17-.07,8,8,0,0,1,4.31-1.95,3.7,3.7,0,0,1,3.3,2,.23.23,0,0,0,.19.11.2.2,0,0,0,.17-.09,8.67,8.67,0,0,1,4.47-2c2.64,0,4.22,2,4.22,5.29,0,1,0,2.15,0,3.28s0,1.91,0,2.55a.84.84,0,0,0,.52.67,6.44,6.44,0,0,0,1.65.41h0a2.32,2.32,0,0,1-.16,1.08l-.72,0c-.55,0-1.3-.06-2.18-.06-1.75,0-2.67,0-3.54.09a2.58,2.58,0,0,1,0-1.07c.51-.1.76-.16,1.07-.25.56-.19.72-.44.75-1.18,0-.53.11-5.17-.07-6.28a2.8,2.8,0,0,0-2.9-2.48,5.13,5.13,0,0,0-2.91,1.11.47.47,0,0,0-.1.27v0a11.46,11.46,0,0,1,.13,2.33c0,.6,0,1.24,0,1.87,0,1.28,0,2.49,0,3.4a.85.85,0,0,0,.67.89l.43.1c.25.06.52.12.9.19a1.64,1.64,0,0,1,0,.8.65.65,0,0,1-.11.27c-1,0-2-.06-3.42-.06l-1.79,0-1.27,0a1.25,1.25,0,0,1-.09-.55,1,1,0,0,1,.1-.52l.39-.07c.33-.06.63-.11.91-.18.47-.15.65-.41.69-1a47.12,47.12,0,0,0,0-6.54,2.67,2.67,0,0,0-2.78-2.47,5.23,5.23,0,0,0-2.9,1.1.91.91,0,0,0-.26.66c0,.49,0,1.07,0,1.69,0,2.05,0,4.61,0,5.72a.9.9,0,0,0,.79.89c.14,0,.38.08.66.13l.52.08A2.13,2.13,0,0,1,52,28.8l-1,0c-.6,0-1.35-.06-2.21-.06s-1.71,0-2.27.06l-1,0"/><path class="cls-9" d="M77.86,16.87a2.76,2.76,0,0,0-1.54.44c-1.12.68-1.69,2-1.69,4,0,3.74,1.87,6.35,4.56,6.35a2.86,2.86,0,0,0,2-.69c.82-.68,1.26-2.05,1.26-4,0-3.69-1.83-6.17-4.56-6.17m.52,12.22c-4.85,0-6.57-3.55-6.57-6.88a6.16,6.16,0,0,1,2.82-5.4A8.58,8.58,0,0,1,79,15.52,6.1,6.1,0,0,1,85.27,22a6.7,6.7,0,0,1-3,5.91,8.49,8.49,0,0,1-3.91,1.19"/><path class="cls-9" d="M127.21,16.87a2.77,2.77,0,0,0-1.55.44c-1.12.68-1.69,2-1.69,4,0,3.74,1.88,6.35,4.56,6.35a2.86,2.86,0,0,0,2-.69c.82-.68,1.26-2.05,1.26-4,0-3.69-1.83-6.17-4.55-6.17m.51,12.22c-4.84,0-6.57-3.55-6.57-6.88a6.15,6.15,0,0,1,2.82-5.4,8.64,8.64,0,0,1,4.36-1.29A6.11,6.11,0,0,1,134.62,22a6.7,6.7,0,0,1-3,5.91,8.45,8.45,0,0,1-3.91,1.19"/><path class="cls-9" d="M110.89,16.75c-1.5,0-2.46,1.18-2.46,3s.83,4,3.17,4a2.27,2.27,0,0,0,1.49-.58,3.74,3.74,0,0,0,.9-2.62c0-2.38-1.16-3.8-3.1-3.8m-.19,12.6a2.45,2.45,0,0,0-1.22.3c-1.18.75-1.73,1.51-1.73,2.38a2.54,2.54,0,0,0,1,2.06,5.1,5.1,0,0,0,3.42,1c2.9,0,4.19-1.55,4.19-3.1a2.19,2.19,0,0,0-1.64-2.2,13.09,13.09,0,0,0-4-.48m.19,7.4a6.32,6.32,0,0,1-4.07-1.19,3.82,3.82,0,0,1-1.5-2.83,2.18,2.18,0,0,1,.57-1.43,15.2,15.2,0,0,1,2.62-2.11.12.12,0,0,0,.09-.12.14.14,0,0,0-.1-.14,2.75,2.75,0,0,1-1.86-1.8s0-.05,0-.07a.43.43,0,0,1,.17-.53c.19-.13.49-.31.81-.49a10.7,10.7,0,0,0,1.29-.85A.2.2,0,0,0,109,25a.19.19,0,0,0-.11-.15,4.18,4.18,0,0,1-3-4.37,4.38,4.38,0,0,1,1.83-3.59,8.37,8.37,0,0,1,4.09-1.38h.07a8.38,8.38,0,0,1,3.12.69,5,5,0,0,0,1.85.3,2.49,2.49,0,0,0,2-.75,1.56,1.56,0,0,1,.11.57,2.08,2.08,0,0,1-.36,1.31,1.62,1.62,0,0,1-1.24.54h-.14a3.82,3.82,0,0,1-.75-.13l-.13.05c0,.05,0,.12,0,.2a.17.17,0,0,1,0,.05,8.18,8.18,0,0,1,.18,1.22,4.58,4.58,0,0,1-1.93,4.13A6.63,6.63,0,0,1,111.27,25h0l-.38,0-.38,0h0c-.21.07-.78.34-.78.84s.25.93,1.48,1l.8.05a24.31,24.31,0,0,1,4.59.58,3.18,3.18,0,0,1,2.12,3.06c0,2.1-1.5,4.09-4,5.3a8.78,8.78,0,0,1-3.79.85"/><path class="cls-9" d="M103.48,27.68a5.55,5.55,0,0,1-1.84-.48.82.82,0,0,1-.23-.44c-.06-1-.06-3.86-.06-5.75a6.89,6.89,0,0,0-.9-3.82,3.88,3.88,0,0,0-3.29-1.73,7.69,7.69,0,0,0-4.33,2.05s-.24.23-.24-.08.06-1,.09-1.36a.68.68,0,0,0-.22-.59,19.67,19.67,0,0,1-4.38,1.15c-.69.13-.86.79-.13,1h0a6.4,6.4,0,0,1,1.67.73.88.88,0,0,1,.25.8c0,2.14,0,5.42-.06,7.21,0,.7-.23,1-.74,1.08h0a10.41,10.41,0,0,1-1.2.22,1.77,1.77,0,0,0,0,1.28c.32,0,2-.1,3.32-.1,1.87,0,2.84.1,3.33.1a1.87,1.87,0,0,0,.13-1.28,6.52,6.52,0,0,1-1.33-.19c-.51-.13-.64-.38-.67-1-.07-1.5-.07-4.69-.07-6.86A1.24,1.24,0,0,1,93,18.62a4.25,4.25,0,0,1,2.64-.95,2.92,2.92,0,0,1,2,.66,2.73,2.73,0,0,1,.9,1.79c.13,1.21.1,3.64.1,5.74,0,1.15-.1,1.44-.52,1.57a5.32,5.32,0,0,1-1.32.25,1.77,1.77,0,0,0,0,1.28c.84,0,1.81-.1,3.23-.1,1.77,0,2.9.1,3.35.1a1.8,1.8,0,0,0,.13-1.28"/><path class="cls-9" d="M202.64,9.1c2.11,0,4.26.33,5.56,1.91a5.8,5.8,0,0,1,1.25,3.68c0,3.46-2.66,5.28-5.78,5.28L210,28.63h-2.32L201.51,20h-4.57v8.66h-1.88V9.1Zm-5.7,9.27h5.84c2.35,0,4.84-.58,4.84-3.76a4.2,4.2,0,0,0-.58-2.19c-.91-1.52-2.49-1.66-4.07-1.66h-6Z"/><path class="cls-9" d="M213.1,22.43c0,2,.83,5,4.42,5a4.43,4.43,0,0,0,4.29-2.77l1.52.45A5.87,5.87,0,0,1,217.6,29c-5.36,0-6.3-4.75-6.3-7,0-4.51,3-6.81,6.08-6.81,3.74,0,6,3.27,6,6.7v.25H213.1Zm8.35-1.74c-.39-3.4-2.66-4.12-4.09-4.12a4.29,4.29,0,0,0-4.24,4.12Z"/><path class="cls-9" d="M237.7,28.63c-2.19,0-3.21-.55-3.21-2.41-.31,1-1.8,2.69-4.68,2.69s-4.15-1.72-4.15-3.6c0-2.63,2.24-3.57,6.61-4.56l2.22-.5v-1c0-1.28-.64-2.69-3.07-2.69-2.72,0-3.57,1.05-3.57,3.18l-1.8-.3c.33-2.68,2.13-4.32,5.17-4.32,2.3,0,4.84.7,4.84,4v5.78c0,1.77.06,2.46,1.69,2.46H238v1.3Zm-3.21-7-.83.22c-4.49,1.19-6.42,1.47-6.42,3.4a2.34,2.34,0,0,0,2.65,2.19A4.85,4.85,0,0,0,234.13,25a5.14,5.14,0,0,0,.36-2.32Z"/><path class="cls-9" d="M240.29,28.63V9.1H242V28.63Z"/><path class="cls-9" d="M261.24,28.63V20.36c0-1.58-.09-2.6-.92-3.24a2.63,2.63,0,0,0-1.63-.47,3.32,3.32,0,0,0-3.1,2.13c-.5,1-.52,2.08-.52,4.35v5.5h-1.61V21.3a8.14,8.14,0,0,0-.41-3.51,2.32,2.32,0,0,0-2.13-1.14A3.21,3.21,0,0,0,248,18.42c-.63,1.19-.66,2.35-.66,4.9v5.31h-1.63V15.44h1.63v2.73a3.76,3.76,0,0,1,3.93-3,3.41,3.41,0,0,1,3.35,2,4.17,4.17,0,0,1,.27,1.3,4.84,4.84,0,0,1,.53-1.33,3.84,3.84,0,0,1,3.59-2,4,4,0,0,1,2.38.66c1.44,1,1.5,2.71,1.5,5.65v7.16Z"/></g></g></svg>